<svg width="112" height="80" viewBox="0 0 112 80" fill="none" xmlns="http://www.w3.org/2000/svg">
<g clip-path="url(#clip0_17_20)">
<path fill-rule="evenodd" clip-rule="evenodd" d="M106.055 6.09379C107.794 7.86776 109.035 10.0672 109.656 12.472C112 21.388 112 39.984 112 39.984C112 39.984 112 58.584 109.656 67.504C109.034 69.9079 107.792 72.1063 106.054 73.8795C104.316 75.6527 102.143 76.9384 99.752 77.608C91.016 80 55.98 80 55.98 80C55.98 80 20.944 80 12.208 77.616C9.81654 76.946 7.64301 75.6597 5.9049 73.8858C4.16679 72.1119 2.92506 69.9126 2.30396 67.508C-0.0400393 58.592 -0.0400391 39.992 -0.0400391 39.992C-0.0400391 39.992 -0.0400393 21.388 2.30396 12.472C2.92469 10.0672 4.1663 7.86776 5.90446 6.09379C7.64263 4.31982 9.81635 3.03363 12.208 2.36401C20.944 -0.0239868 55.98 -0.0239868 55.98 -0.0239868C55.98 -0.0239868 91.016 -0.0239868 99.752 2.36401C102.144 3.03363 104.317 4.31982 106.055 6.09379ZM72 41.336L42.668 58.668V24L72 41.336Z" fill="#384050"/>
</g>
<defs>
<clipPath id="clip0_17_20">
<rect width="112" height="80" fill="white"/>
</clipPath>
</defs>
</svg>
