<svg width="80" height="80" viewBox="0 0 80 80" fill="none" xmlns="http://www.w3.org/2000/svg">
<g clip-path="url(#clip0_17_12)">
<path fill-rule="evenodd" clip-rule="evenodd" d="M71.1099 80H8.88827V79.9982C3.97938 79.9982 0 76.0188 0 71.1099V8.88828C0 3.97939 3.97938 0 8.88827 0H71.1099C76.0188 0 79.9982 3.97939 79.9982 8.88828V71.1117C79.9982 76.0206 76.0188 80 71.1099 80ZM57.0163 68.8883H68.8882L68.8901 68.8901V44.5021C68.8901 34.1837 63.0443 29.1938 54.8702 29.1938C46.6961 29.1938 43.256 35.5586 43.256 35.5586V30.37H31.8148V68.8883H43.256V48.6693C43.256 43.2524 45.75 40.0276 50.5227 40.0276C54.9107 40.0276 57.0163 43.1254 57.0163 48.6693V68.8883ZM11.1117 18.2183C11.1117 22.1443 14.2702 25.3267 18.1667 25.3267C22.0633 25.3267 25.2199 22.1443 25.2199 18.2183C25.2199 14.2923 22.0633 11.1099 18.1667 11.1099C14.2702 11.1099 11.1117 14.2923 11.1117 18.2183ZM24.1873 68.8883H12.2584V30.37H24.1873V68.8883Z" fill="#384050"/>
</g>
<defs>
<clipPath id="clip0_17_12">
<rect width="80" height="80" fill="white"/>
</clipPath>
</defs>
</svg>
