<svg width="80" height="80" viewBox="0 0 80 80" fill="none" xmlns="http://www.w3.org/2000/svg">
<g clip-path="url(#clip0_17_16)">
<path fill-rule="evenodd" clip-rule="evenodd" d="M16.7421 0H63.2579C72.5043 0 80 7.49571 80 16.7421V63.2579C80 72.5043 72.5043 80 63.2579 80H16.7421C7.49571 80 0 72.5043 0 63.2579V16.7421C0 7.49571 7.49571 0 16.7421 0ZM59.897 18.7061L44.053 36.7421L61.2756 61.2939H48.603L36.9999 44.7561L22.4756 61.2939H18.7227L35.3378 42.3836L18.7227 18.7061H31.3952L42.3799 34.3622L56.144 18.7061H59.897ZM29.5988 21.478H23.8322L50.3755 58.66H56.1421L29.5988 21.478Z" fill="#384050"/>
</g>
<defs>
<clipPath id="clip0_17_16">
<rect width="80" height="80" fill="white"/>
</clipPath>
</defs>
</svg>
