<svg width="80" height="80" viewBox="0 0 80 80" fill="none" xmlns="http://www.w3.org/2000/svg">
<g clip-path="url(#clip0_17_8)">
<path fill-rule="evenodd" clip-rule="evenodd" d="M18.08 0C14.5864 0.0173978 11.1717 1.04063 8.2442 2.94737C5.31672 4.8541 3.00034 7.56363 1.57202 10.752C0.5324 13.0803 -0.0033101 15.6021 2.27931e-05 18.152V61.848C-0.00376409 64.2327 0.464353 66.5946 1.3774 68.7976C2.29046 71.0006 3.6304 73.0011 5.32002 74.684C7.00305 76.3709 9.00261 77.7088 11.204 78.6211C13.4053 79.5333 15.7651 80.0019 18.148 80H61.844C64.2286 80.0027 66.5901 79.5341 68.793 78.6211C70.9958 77.7081 72.9965 76.3687 74.68 74.68C76.3699 72.9965 77.71 70.9953 78.6231 68.7916C79.5362 66.5879 80.0041 64.2253 80 61.84V18.16C80.0029 15.7754 79.5344 13.4138 78.6214 11.2109C77.7084 9.00804 76.3689 7.00739 74.68 5.324C71.299 1.93037 66.7104 0.0157939 61.92 0H18.08ZM63.9601 52.952C63.959 55.9359 62.7732 58.7973 60.6632 60.9072C58.5533 63.0171 55.6919 64.2029 52.7081 64.204H27.2921C24.3082 64.2029 21.4468 63.0171 19.3369 60.9072C17.2269 58.7973 16.0411 55.9359 16.0401 52.952V27.536C16.0411 24.5521 17.2269 21.6907 19.3369 19.5808C21.4468 17.4709 24.3082 16.2851 27.2921 16.284H52.7081C55.6919 16.2851 58.5533 17.4709 60.6632 19.5808C62.7732 21.6907 63.959 24.5521 63.9601 27.536V52.952ZM52.4121 10.728H27.5841C23.0877 10.728 18.7755 12.5139 15.5958 15.6929C12.416 18.8719 10.6291 23.1837 10.6281 27.68V52.512C10.6275 54.739 11.0657 56.9443 11.9176 59.002C12.7695 61.0597 14.0184 62.9294 15.5929 64.5043C17.1675 66.0792 19.0369 67.3285 21.0943 68.1809C23.1518 69.0333 25.357 69.472 27.5841 69.472H52.4161C54.6431 69.472 56.8483 69.0333 58.9058 68.1809C60.9632 67.3285 62.8326 66.0792 64.4072 64.5043C65.9817 62.9294 67.2306 61.0597 68.0825 59.002C68.9344 56.9443 69.3726 54.739 69.3721 52.512V27.68C69.3715 25.4533 68.9324 23.2485 68.0798 21.1915C67.2272 19.1345 65.9778 17.2656 64.4029 15.6915C62.828 14.1173 60.9585 12.8688 58.9011 12.0172C56.8437 11.1655 54.6387 10.7275 52.4121 10.728ZM33.0138 47.2262C34.8667 49.0791 37.3797 50.12 40 50.12C42.6203 50.12 45.1334 49.0791 46.9862 47.2262C48.8391 45.3734 49.88 42.8603 49.88 40.24C49.88 37.6197 48.8391 35.1066 46.9862 33.2538C45.1334 31.4009 42.6203 30.36 40 30.36C37.3797 30.36 34.8667 31.4009 33.0138 33.2538C31.1609 35.1066 30.12 37.6197 30.12 40.24C30.12 42.8603 31.1609 45.3734 33.0138 47.2262ZM34.1679 26.1601C36.0169 25.3942 37.9987 25 40 25C44.0419 25 47.9183 26.6056 50.7763 29.4637C53.6344 32.3217 55.24 36.1981 55.24 40.24C55.24 44.2819 53.6344 48.1582 50.7763 51.0163C47.9183 53.8744 44.0419 55.48 40 55.48C37.9987 55.48 36.0169 55.0858 34.1679 54.3199C32.3189 53.554 30.6389 52.4315 29.2237 51.0163C27.8085 49.6011 26.686 47.9211 25.9201 46.0721C25.1542 44.2231 24.76 42.2413 24.76 40.24C24.76 38.2387 25.1542 36.2569 25.9201 34.4079C26.686 32.5589 27.8085 30.8788 29.2237 29.4637C30.6389 28.0485 32.3189 26.926 34.1679 26.1601ZM54.3566 21.1112C54.8012 20.94 55.2758 20.86 55.752 20.876C56.6729 20.9069 57.5457 21.2945 58.1863 21.9568C58.8268 22.6192 59.1848 23.5046 59.1848 24.426C59.1848 25.3474 58.8268 26.2328 58.1863 26.8951C57.5457 27.5575 56.6729 27.9451 55.752 27.976C55.2758 27.992 54.8012 27.912 54.3566 27.7408C53.9119 27.5696 53.5062 27.3107 53.1637 26.9794C52.8212 26.6482 52.5488 26.2514 52.3627 25.8128C52.1767 25.3741 52.0808 24.9025 52.0808 24.426C52.0808 23.9495 52.1767 23.4779 52.3627 23.0392C52.5488 22.6005 52.8212 22.2038 53.1637 21.8726C53.5062 21.5413 53.9119 21.2824 54.3566 21.1112Z" fill="#384050"/>
</g>
<defs>
<clipPath id="clip0_17_8">
<rect width="80" height="80" fill="white"/>
</clipPath>
</defs>
</svg>
