<svg width="80" height="80" viewBox="0 0 80 80" fill="none" xmlns="http://www.w3.org/2000/svg">
<g clip-path="url(#clip0_17_2)">
<mask id="mask0_17_2" style="mask-type:alpha" maskUnits="userSpaceOnUse" x="0" y="0" width="80" height="80">
<path fill-rule="evenodd" clip-rule="evenodd" d="M0 0H80V80H0V0Z" fill="white"/>
</mask>
<g mask="url(#mask0_17_2)">
<path fill-rule="evenodd" clip-rule="evenodd" d="M80.0001 40.248C80.0001 18.02 62.0921 0 40.0001 0C17.9041 0 -0.00390625 18.02 -0.00390625 40.248C-0.00390625 60.336 14.6241 76.984 33.7481 80.004V51.88H23.5881V40.24H33.7481V31.384C33.7481 21.296 39.7201 15.724 48.8561 15.724C53.2361 15.724 57.8121 16.512 57.8121 16.512V26.416H52.7681C47.8001 26.416 46.2481 29.516 46.2481 32.7V40.252H57.3441L55.5681 51.884H46.2481V80C65.3721 76.988 80.0001 60.336 80.0001 40.248Z" fill="#384050"/>
</g>
</g>
<defs>
<clipPath id="clip0_17_2">
<rect width="80" height="80" fill="white"/>
</clipPath>
</defs>
</svg>
